<svg width="38" height="51" viewBox="0 0 38 51" fill="none" xmlns="http://www.w3.org/2000/svg">
<path d="M32.8125 6.5H25C25 3.08203 22.168 0.25 18.75 0.25C15.2344 0.25 12.5 3.08203 12.5 6.5H4.6875C2.05078 6.5 0 8.64844 0 11.1875V45.5625C0 48.1992 2.05078 50.25 4.6875 50.25H32.8125C35.3516 50.25 37.5 48.1992 37.5 45.5625V11.1875C37.5 8.64844 35.3516 6.5 32.8125 6.5ZM9.375 41.6562C8.00781 41.6562 7.03125 40.6797 7.03125 39.3125C7.03125 38.043 8.00781 36.9688 9.375 36.9688C10.6445 36.9688 11.7188 38.043 11.7188 39.3125C11.7188 40.6797 10.6445 41.6562 9.375 41.6562ZM9.375 32.2812C8.00781 32.2812 7.03125 31.3047 7.03125 29.9375C7.03125 28.668 8.00781 27.5938 9.375 27.5938C10.6445 27.5938 11.7188 28.668 11.7188 29.9375C11.7188 31.3047 10.6445 32.2812 9.375 32.2812ZM9.375 22.9062C8.00781 22.9062 7.03125 21.9297 7.03125 20.5625C7.03125 19.293 8.00781 18.2188 9.375 18.2188C10.6445 18.2188 11.7188 19.293 11.7188 20.5625C11.7188 21.9297 10.6445 22.9062 9.375 22.9062ZM18.75 4.15625C20.0195 4.15625 21.0938 5.23047 21.0938 6.5C21.0938 7.86719 20.0195 8.84375 18.75 8.84375C17.3828 8.84375 16.4062 7.86719 16.4062 6.5C16.4062 5.23047 17.3828 4.15625 18.75 4.15625ZM31.25 40.0938C31.25 40.582 30.8594 40.875 30.4688 40.875H16.4062C15.918 40.875 15.625 40.582 15.625 40.0938V38.5312C15.625 38.1406 15.918 37.75 16.4062 37.75H30.4688C30.8594 37.75 31.25 38.1406 31.25 38.5312V40.0938ZM31.25 30.7188C31.25 31.207 30.8594 31.5 30.4688 31.5H16.4062C15.918 31.5 15.625 31.207 15.625 30.7188V29.1562C15.625 28.7656 15.918 28.375 16.4062 28.375H30.4688C30.8594 28.375 31.25 28.7656 31.25 29.1562V30.7188ZM31.25 21.3438C31.25 21.832 30.8594 22.125 30.4688 22.125H16.4062C15.918 22.125 15.625 21.832 15.625 21.3438V19.7812C15.625 19.3906 15.918 19 16.4062 19H30.4688C30.8594 19 31.25 19.3906 31.25 19.7812V21.3438Z" fill="white"/>
</svg>
