<svg width="42" height="42" viewBox="0 0 42 42" fill="none" xmlns="http://www.w3.org/2000/svg">
<circle cx="21" cy="21" r="20.7414" fill="#0054A8" stroke="#3687D8" stroke-width="0.517196"/>
<path d="M16.5162 20.8532C19.4861 20.8532 21.9468 18.4349 21.9468 15.4226C21.9468 12.4528 19.4861 9.99208 16.5162 9.99208C13.504 9.99208 11.0857 12.4528 11.0857 15.4226C11.0857 18.4349 13.504 20.8532 16.5162 20.8532ZM20.2921 22.2108H19.5709C18.6375 22.6775 17.6193 22.8896 16.5162 22.8896C15.4131 22.8896 14.3525 22.6775 13.4191 22.2108H12.6979C9.55832 22.2108 7.01274 24.7988 7.01274 27.9384V29.6778C7.01274 30.8234 7.90369 31.7143 9.0492 31.7143H20.674C20.5891 31.4597 20.5467 31.1203 20.5891 30.8234L20.8861 28.2354L20.9285 27.7687L21.268 27.4293L24.5348 24.1624C23.5165 22.9745 21.9892 22.2108 20.2921 22.2108ZM22.2013 28.4051L21.9468 30.9931C21.9043 31.4173 22.2438 31.7992 22.668 31.7143L25.256 31.4597L31.1108 25.6049L28.0561 22.5502L22.2013 28.4051ZM33.8685 21.4047L32.2563 19.7925C31.8321 19.4107 31.1957 19.4107 30.8139 19.7925L29.2017 21.4047L29.032 21.5744L32.0866 24.6291L33.8685 22.8472C34.2504 22.4654 34.2504 21.829 33.8685 21.4047Z" fill="white"/>
</svg>
